<svg xmlns="http://www.w3.org/2000/svg" width="40" height="31" viewBox="0 0 40 31" fill="none">
<path d="M8 31C3.582 31 0 27.418 0 23C0 18.582 3.582 15 8 15C8.834 15 9.636 15.128 10.392 15.364C11.518 11.68 14.946 9 19 9C23.97 9 28 13.03 28 18C28 18.47 27.964 18.93 27.894 19.38C28.55 19.134 29.258 19 30 19C33.314 19 36 21.686 36 25C36 28.314 33.314 31 30 31H8Z" fill="url(#paint0_linear_2_551)"/>
<path d="M10 18C10 22.97 14.03 27 19 27C23.502 27 27.23 23.696 27.894 19.38C28.55 19.134 29.258 19 30 19C33.314 19 36 21.686 36 25C36 28.314 33.314 31 30 31H8C3.582 31 0 27.418 0 23C0 18.582 3.582 15 8 15C8.834 15 9.636 15.128 10.392 15.364C10.136 16.198 10 17.082 10 18Z" fill="url(#paint1_radial_2_551)"/>
<defs>
<linearGradient id="paint0_linear_2_551" x1="18" y1="9" x2="18" y2="31" gradientUnits="userSpaceOnUse">
<stop stop-color="#9FC7FF"/>
<stop offset="1" stop-color="#9BC1F5"/>
</linearGradient>
<radialGradient id="paint1_radial_2_551" cx="0" cy="0" r="1" gradientUnits="userSpaceOnUse" gradientTransform="translate(13.9439 -29.6966) rotate(-90) scale(20.9574 6.69705)">
<stop stop-color="#486DA8" stop-opacity="0.4"/>
<stop offset="1" stop-color="#486DA8" stop-opacity="0"/>
</radialGradient>
</defs>
</svg>